<svg xmlns="http://www.w3.org/2000/svg" width="120" height="80" viewBox="0 0 120 80">
  <!-- Warped page (before) -->
  <g transform="translate(8,10)">
    <rect x="5" y="5" width="35" height="48" rx="2" fill="#e8e8e8" stroke="#999" stroke-width="1.2"/>
    <path d="M12,18 Q22,14 32,18" stroke="#bbb" stroke-width="1.5" fill="none"/>
    <path d="M12,25 Q22,21 32,25" stroke="#bbb" stroke-width="1.5" fill="none"/>
    <path d="M12,32 Q20,28.5 28,32" stroke="#bbb" stroke-width="1.5" fill="none"/>
    <path d="M12,39 Q22,35 32,39" stroke="#bbb" stroke-width="1.5" fill="none"/>
  </g>
  <!-- Arrow -->
  <path d="M56,38 L68,38" stroke="#3584e4" stroke-width="2" fill="none" marker-end="url(#arrow)"/>
  <defs><marker id="arrow" viewBox="0 0 6 6" refX="5" refY="3" markerWidth="6" markerHeight="6" orient="auto"><path d="M0,0 L6,3 L0,6 Z" fill="#3584e4"/></marker></defs>
  <!-- Straight page (after) -->
  <g transform="translate(72,10)">
    <rect x="5" y="5" width="35" height="48" rx="2" fill="#fff" stroke="#3584e4" stroke-width="1.5"/>
    <line x1="12" y1="18" x2="32" y2="18" stroke="#555" stroke-width="1.5"/>
    <line x1="12" y1="25" x2="32" y2="25" stroke="#555" stroke-width="1.5"/>
    <line x1="12" y1="32" x2="28" y2="32" stroke="#555" stroke-width="1.5"/>
    <line x1="12" y1="39" x2="32" y2="39" stroke="#555" stroke-width="1.5"/>
  </g>
</svg>
