<svg xmlns="http://www.w3.org/2000/svg" width="120" height="80" viewBox="0 0 120 80">
  <!-- Large single file -->
  <g transform="translate(8,8)">
    <rect x="6" y="2" width="32" height="48" rx="2" fill="#fff" stroke="#999" stroke-width="1.2"/>
    <line x1="14" y1="14" x2="30" y2="14" stroke="#bbb" stroke-width="1.5"/>
    <line x1="14" y1="20" x2="30" y2="20" stroke="#bbb" stroke-width="1.5"/>
    <line x1="14" y1="26" x2="30" y2="26" stroke="#bbb" stroke-width="1.5"/>
    <line x1="14" y1="32" x2="30" y2="32" stroke="#bbb" stroke-width="1.5"/>
    <line x1="14" y1="38" x2="28" y2="38" stroke="#bbb" stroke-width="1.5"/>
    <text x="22" y="48" text-anchor="middle" font-size="5" fill="#c00" font-family="sans-serif">50 MB</text>
  </g>
  <!-- Arrow -->
  <path d="M50,38 L60,38" stroke="#3584e4" stroke-width="2" fill="none" marker-end="url(#arr)"/>
  <defs><marker id="arr" viewBox="0 0 6 6" refX="5" refY="3" markerWidth="6" markerHeight="6" orient="auto"><path d="M0,0 L6,3 L0,6 Z" fill="#3584e4"/></marker></defs>
  <!-- Split into smaller files -->
  <g transform="translate(64,6)">
    <rect x="2" y="0" width="22" height="32" rx="1.5" fill="#fff" stroke="#3584e4" stroke-width="1.2"/>
    <text x="13" y="14" text-anchor="middle" font-size="4" fill="#555" font-family="sans-serif">-01</text>
    <text x="13" y="26" text-anchor="middle" font-size="4" fill="#26a269" font-family="sans-serif">10MB</text>
  </g>
  <g transform="translate(88,6)">
    <rect x="2" y="0" width="22" height="32" rx="1.5" fill="#fff" stroke="#3584e4" stroke-width="1.2"/>
    <text x="13" y="14" text-anchor="middle" font-size="4" fill="#555" font-family="sans-serif">-02</text>
    <text x="13" y="26" text-anchor="middle" font-size="4" fill="#26a269" font-family="sans-serif">10MB</text>
  </g>
  <g transform="translate(76,40)">
    <rect x="2" y="0" width="22" height="32" rx="1.5" fill="#fff" stroke="#3584e4" stroke-width="1.2"/>
    <text x="13" y="14" text-anchor="middle" font-size="4" fill="#555" font-family="sans-serif">-03</text>
    <text x="13" y="26" text-anchor="middle" font-size="4" fill="#26a269" font-family="sans-serif">10MB</text>
  </g>
</svg>
